<svg width="512" height="512" viewBox="0 0 512 512" fill="none" xmlns="http://www.w3.org/2000/svg">
<rect width="512" height="512" rx="100" fill="#0F172A"/> <g id="icon">
<g id="microphone">
<path d="M256 341.333C293.473 341.333 323.2 311.606 323.2 274.133V170.667C323.2 133.194 293.473 103.467 256 103.467C218.527 103.467 188.8 133.194 188.8 170.667V274.133C188.8 311.606 218.527 341.333 256 341.333Z" fill="url(#microphoneGradient)"/>
<path d="M370.133 241.6L370.133 274.133C370.133 336.853 320.693 386.293 256 386.293C191.307 386.293 141.867 336.853 141.867 274.133L141.867 241.6" stroke="url(#microphoneGradient)" stroke-width="25.6" stroke-linecap="round"/>
<path d="M256 426.667L256 460.8" stroke="url(#microphoneGradient)" stroke-width="25.6" stroke-linecap="round"/>
<path d="M208 460.8L304 460.8" stroke="url(#microphoneGradient)" stroke-width="25.6" stroke-linecap="round"/>
</g>
<g id="sound-waves">
<path d="M194.133 133.191C194.133 133.191 170.667 151.792 170.667 180.144C170.667 208.496 194.133 227.106 194.133 227.106" stroke="url(#waveGradient)" stroke-width="12.8" stroke-linecap="round" stroke-linejoin="round"/>
<path d="M317.867 133.191C317.867 133.191 341.333 151.792 341.333 180.144C341.333 208.496 317.867 227.106 317.867 227.106" stroke="url(#waveGradient)" stroke-width="12.8" stroke-linecap="round" stroke-linejoin="round"/>
</g>
</g>

<defs>
<linearGradient id="microphoneGradient" x1="256" y1="103.467" x2="256" y2="341.333" gradientUnits="userSpaceOnUse">
<stop stop-color="#38BDF8"/>
<stop offset="1" stop-color="#1D4ED8"/>
</linearGradient>
<linearGradient id="waveGradient" x1="256" y1="133.191" x2="256" y2="227.106" gradientUnits="userSpaceOnUse">
<stop stop-color="#38BDF8"/>
<stop offset="1" stop-color="#1D4ED8"/>
</linearGradient>
</defs>
</svg>
